<svg width="36" height="36" viewBox="0 0 36 36" fill="none" xmlns="http://www.w3.org/2000/svg">
<g id="Frame 30085">
<rect width="36" height="36" rx="8" fill="#EFF3FA"/>
<g id="vuesax/linear/teacher">
<g id="teacher">
<path id="Vector" d="M16.05 8.53001L10.03 12.46C8.1 13.72 8.1 16.54 10.03 17.8L16.05 21.73C17.13 22.44 18.91 22.44 19.99 21.73L25.98 17.8C27.9 16.54 27.9 13.73 25.98 12.47L19.99 8.54001C18.91 7.82001 17.13 7.82001 16.05 8.53001Z" stroke="#13296A" stroke-width="1.5" stroke-linecap="round" stroke-linejoin="round"/>
<path id="Vector_2" d="M11.63 19.08L11.62 23.77C11.62 25.04 12.6 26.4 13.8 26.8L16.99 27.86C17.54 28.04 18.45 28.04 19.01 27.86L22.2 26.8C23.4 26.4 24.38 25.04 24.38 23.77V19.13" stroke="#13296A" stroke-width="1.5" stroke-linecap="round" stroke-linejoin="round"/>
<path id="Vector_3" d="M27.4 21V15" stroke="#13296A" stroke-width="1.5" stroke-linecap="round" stroke-linejoin="round"/>
</g>
</g>
</g>
</svg>
