<svg width="28" height="28" viewBox="0 0 28 28" fill="none" xmlns="http://www.w3.org/2000/svg">
<g id="iconoir:bell-notification">
<path id="Vector" d="M16.0183 24.5C15.8135 24.8539 15.5191 25.1477 15.1649 25.3519C14.8106 25.5562 14.4089 25.6637 14 25.6637C13.5911 25.6637 13.1894 25.5562 12.8351 25.3519C12.4809 25.1477 12.1865 24.8539 11.9817 24.5M21.1563 12.8333C21.8342 19.1042 24.5 21 24.5 21H3.5C3.5 21 7 18.5115 7 9.80001C7 7.82018 7.73733 5.92084 9.04983 4.52084C10.3635 3.12084 12.145 2.33334 14 2.33334C14.3932 2.33334 14.784 2.36834 15.1667 2.43834L21.1563 12.8333ZM22.1667 9.33334C23.0949 9.33334 23.9852 8.96459 24.6415 8.30822C25.2979 7.65184 25.6667 6.7616 25.6667 5.83334C25.6667 4.90509 25.2979 4.01485 24.6415 3.35847C23.9852 2.70209 23.0949 2.33334 22.1667 2.33334C21.2384 2.33334 20.3482 2.70209 19.6918 3.35847C19.0354 4.01485 18.6667 4.90509 18.6667 5.83334C18.6667 6.7616 19.0354 7.65184 19.6918 8.30822C20.3482 8.96459 21.2384 9.33334 22.1667 9.33334Z" stroke="#282828" stroke-width="1.5" stroke-linecap="round" stroke-linejoin="round"/>
<ellipse id="Ellipse 7" cx="6.3" cy="6.3" rx="6.3" ry="6.3" transform="matrix(-1 0 0 1 26.6 0)" fill="#2D88D4"/>
</g>
</svg>
