<svg width="25" height="25" viewBox="0 0 16 17" fill="none" xmlns="http://www.w3.org/2000/svg">
<g id="vuesax/outline/teacher">
<g id="vuesax/outline/teacher_2">
<g id="teacher">
<path id="Vector" d="M8.00665 11.8333C7.43998 11.8333 6.86665 11.6867 6.41998 11.4L2.40665 8.78C1.65998 8.29333 1.21332 7.47333 1.21332 6.58C1.21332 5.68667 1.65998 4.86667 2.40665 4.38L6.42665 1.76667C7.31998 1.18667 8.71332 1.18667 9.59998 1.77333L13.5933 4.39333C14.3333 4.88 14.78 5.7 14.78 6.58667C14.78 7.47333 14.3333 8.29333 13.5933 8.78L9.59998 11.4C9.15332 11.6933 8.57998 11.8333 8.00665 11.8333ZM8.00665 2.33333C7.62665 2.33333 7.24665 2.42 6.97332 2.60667L2.95998 5.22C2.49332 5.52667 2.21998 6.02 2.21998 6.58C2.21998 7.14 2.48665 7.63333 2.95998 7.94L6.97332 10.56C7.52665 10.92 8.49998 10.92 9.05332 10.56L13.0467 7.94C13.5133 7.63333 13.78 7.14 13.78 6.58C13.78 6.02 13.5133 5.52667 13.0467 5.22L9.05332 2.6C8.77332 2.42667 8.39332 2.33333 8.00665 2.33333Z" fill="white"/>
<path id="Vector_2" d="M8.00002 15.6667C7.70669 15.6667 7.40669 15.6267 7.16669 15.5467L5.04002 14.84C4.03335 14.5067 3.24002 13.4067 3.24668 12.3467L3.25335 9.22C3.25335 8.94667 3.48002 8.72 3.75335 8.72C4.02669 8.72 4.25335 8.94667 4.25335 9.22L4.24668 12.3467C4.24668 12.9733 4.76669 13.6933 5.36002 13.8933L7.48668 14.6C7.75335 14.6867 8.24669 14.6867 8.51335 14.6L10.64 13.8933C11.2334 13.6933 11.7534 12.9733 11.7534 12.3533V9.26C11.7534 8.98667 11.98 8.76 12.2534 8.76C12.5267 8.76 12.7534 8.98667 12.7534 9.26V12.3533C12.7534 13.4133 11.9667 14.5067 10.96 14.8467L8.83335 15.5533C8.59335 15.6267 8.29335 15.6667 8.00002 15.6667Z" fill="white"/>
<path id="Vector_3" d="M14.2667 11C13.9933 11 13.7667 10.7733 13.7667 10.5V6.5C13.7667 6.22667 13.9933 6 14.2667 6C14.54 6 14.7667 6.22667 14.7667 6.5V10.5C14.7667 10.7733 14.54 11 14.2667 11Z" fill="white"/>
</g>
</g>
</g>
</svg>
