<svg width="25" height="25" viewBox="0 0 16 17" fill="none" xmlns="http://www.w3.org/2000/svg">
<g id="vuesax/broken/chart-square">
<g id="vuesax/broken/chart-square_2">
<g id="chart-square">
<path id="Vector" d="M1.33331 9.05334V10.5C1.33331 13.8333 2.66665 15.1667 5.99998 15.1667H9.99998C13.3333 15.1667 14.6666 13.8333 14.6666 10.5V6.5C14.6666 3.16667 13.3333 1.83333 9.99998 1.83333H5.99998C2.66665 1.83333 1.33331 3.16667 1.33331 6.5" stroke="white" stroke-linecap="round" stroke-linejoin="round"/>
<g id="Group">
<path id="Vector_2" d="M6.73997 7.93335H4.97331C4.55331 7.93335 4.21332 8.27332 4.21332 8.69332V12.1066H6.73997V7.93335V7.93335Z" stroke="white" stroke-miterlimit="10" stroke-linecap="round" stroke-linejoin="round"/>
<path id="Vector_3" d="M8.50667 4.89998H7.49333C7.07333 4.89998 6.73334 5.23999 6.73334 5.65999V12.1H9.26001V5.65999C9.26001 5.23999 8.92667 4.89998 8.50667 4.89998Z" stroke="white" stroke-miterlimit="10" stroke-linecap="round" stroke-linejoin="round"/>
<path id="Vector_4" d="M11.0333 9.06665H9.26666V12.1H11.7933V9.82666C11.7867 9.40666 11.4467 9.06665 11.0333 9.06665Z" stroke="white" stroke-miterlimit="10" stroke-linecap="round" stroke-linejoin="round"/>
</g>
</g>
</g>
</g>
</svg>
